<svg width="393" height="75" viewBox="0 0 393 75" fill="none" xmlns="http://www.w3.org/2000/svg">
<path d="M93 56.6364V8H102.992V27.0909H122.069V8H131.834V56.6364H122.069V35.2727H102.992V56.6364H93ZM139.329 68V60.7273H142.735C146.142 60.7273 147.731 59.1364 147.731 56.1818C147.731 54.5909 146.823 51.4091 145.233 46.6364L135.695 21.6364H145.46L150.684 37.5455L152.955 45.0455C153.636 42.0909 154.317 39.5909 155.226 37.5455L159.768 21.6364H169.306L157.042 57.5455C155.68 61.4091 154.317 64.3636 152.5 65.7273C150.911 67.3182 148.185 68 144.779 68H139.329V68ZM172.485 68V21.6364H181.342V26.1818C182.47 24.4528 184.024 23.043 185.853 22.0878C187.682 21.1326 189.726 20.6641 191.789 20.7273C196.331 20.7273 199.964 22.5455 202.69 25.9545C205.618 29.7114 207.144 34.3736 207.005 39.1364C207.253 44.0534 205.721 48.8951 202.69 52.7727C201.352 54.3415 199.675 55.586 197.787 56.4127C195.899 57.2394 193.848 57.6267 191.789 57.5455C187.247 57.5455 184.067 55.9545 181.796 52.7727V68H172.485ZM189.972 49.8182C192.243 49.8182 194.06 49.1364 195.422 47.0909C196.785 45.2727 197.693 42.5455 197.693 39.5909C197.693 35.9545 197.012 33.2273 195.422 31.1818C194.287 29.3636 192.243 28.2273 189.518 28.2273C186.793 28.2273 184.749 29.3636 183.386 31.4091C182.023 33.4545 181.342 35.9545 181.342 39.5909C181.342 42.7727 182.251 45.2727 183.613 47.0909C184.976 49.1364 187.247 50.0455 189.972 50.0455V49.8182ZM227.671 57.5455C221.993 57.5455 217.678 55.9545 214.272 52.5455C211.075 48.8355 209.447 44.0267 209.73 39.1364C209.73 33.9091 211.092 29.5909 214.272 26.1818C215.819 24.4028 217.743 22.9905 219.903 22.0472C222.064 21.1038 224.407 20.6529 226.762 20.7273C232.213 20.7273 236.528 22.7727 239.48 26.4091C242.432 30.2727 244.022 35.5 244.022 41.8636H218.587C219.041 44.5909 219.949 46.6364 221.539 48.2273C222.902 49.8182 224.946 50.5 227.444 50.5C230.85 50.5 233.121 49.1364 234.257 46.1818H243.341C242.662 49.458 240.803 52.37 238.117 54.3636C235.094 56.5744 231.412 57.6959 227.671 57.5455V57.5455ZM226.762 28C222.22 28 219.722 30.2727 218.814 35.5H234.257C234.257 33.2273 233.348 31.4091 231.986 30.0455C231.33 29.3119 230.524 28.7289 229.623 28.3366C228.721 27.9443 227.745 27.752 226.762 27.7727V28ZM257.421 21.6364V27.3182C258.556 25.2727 259.692 23.6818 261.055 22.7727C262.417 21.8636 264.007 21.4091 266.051 21.4091H268.322V29.5909H268.095C264.915 29.5909 262.417 30.0455 260.6 31.8636C258.556 33.4545 257.648 35.9545 257.648 39.5909V56.6364H248.564V21.6364H257.421V21.6364ZM272.182 56.6364V8H281.266V56.6364H272.182ZM309.427 56.6364C308.765 55.4496 308.377 54.1294 308.291 52.7727C307.156 54.3636 306.02 55.5 304.431 56.1818C302.841 57.0909 300.797 57.5455 298.072 57.5455C294.211 57.5455 291.259 56.6364 288.988 54.5909C286.717 52.7727 285.809 50.0455 285.809 46.8636C285.809 43.2273 286.944 40.7273 289.442 38.9091C291.713 37.3182 295.347 36.1818 299.889 35.5L306.475 34.1364C307.61 33.6818 308.291 32.7727 308.291 31.6364C308.291 30.2727 307.837 29.3636 306.702 28.6818C305.432 27.8291 303.912 27.4288 302.387 27.5455C298.072 27.5455 296.028 29.1364 295.574 32.3182H287.398C287.398 29.1364 288.988 26.4091 291.486 24.1364C293.984 21.8636 297.618 20.9545 302.387 20.9545C312.152 20.9545 317.148 25.0455 317.148 33.6818V51.4091C317.148 54.1364 317.603 55.7273 318.284 56.4091V56.6364H309.654H309.427ZM300.343 50.9545C302.614 50.9545 304.885 50.2727 306.248 48.9091C307.61 47.7727 308.519 46.1818 308.519 44.3636V39.1364L301.933 41.1818C299.435 41.6364 297.391 42.3182 296.482 43.2273C295.347 43.9091 294.665 45.0455 294.665 46.6364C294.665 49.5909 296.482 51.1818 300.116 51.1818L300.343 50.9545ZM332.137 21.6364V26.4091C333.184 24.5883 334.714 23.0935 336.558 22.0905C338.402 21.0875 340.488 20.6156 342.584 20.7273C344.198 20.6845 345.802 20.9867 347.291 21.6138C348.779 22.2409 350.116 23.1783 351.214 24.3636C353.485 26.8636 354.62 30.0455 354.62 33.9091V56.6364H345.536V35.2727C345.536 33.2273 344.855 31.8636 343.719 30.7273C342.811 29.3636 341.448 28.9091 339.177 28.9091C338.232 28.9205 337.3 29.1285 336.44 29.5197C335.58 29.911 334.811 30.477 334.181 31.1818C332.818 32.5455 332.364 34.5909 332.364 36.8636V56.6364H323.053V21.6364H332.137ZM376.649 57.5455C370.971 57.5455 366.656 55.9545 363.477 52.5455C360.199 48.8705 358.487 44.0578 358.708 39.1364C358.708 33.9091 360.298 29.5909 363.25 26.1818C364.798 24.4028 366.721 22.9905 368.881 22.0472C371.042 21.1038 373.385 20.6529 375.74 20.7273C381.191 20.7273 385.506 22.7727 388.458 26.4091C391.41 30.2727 393 35.5 393 41.8636H367.792C368.019 44.5909 368.927 46.6364 370.517 48.2273C372.107 49.8182 374.151 50.5 376.649 50.5C380.055 50.5 382.326 49.1364 383.462 46.1818H392.546C391.867 49.458 390.008 52.37 387.322 54.3636C384.238 56.6243 380.467 57.7484 376.649 57.5455V57.5455ZM375.967 28C371.425 28 368.7 30.2727 367.792 35.5H383.462C383.235 33.2273 382.553 31.4091 381.191 30.0455C380.536 29.3119 379.729 28.7289 378.828 28.3366C377.926 27.9443 376.95 27.752 375.967 27.7727V28Z" fill="#010101"/>
<path d="M38.5211 1H52.4304C53.3514 1.00621 54.2487 1.29135 55.0036 1.81765C55.7585 2.34396 56.3354 3.08659 56.6577 3.9472L68.9306 36.6612C69.0209 36.9102 69.0209 37.1829 68.9306 37.432L68.8624 37.636L56.6577 71.0074C56.3401 71.8837 55.7595 72.6412 54.995 73.1766C54.2304 73.7121 53.3191 73.9996 52.3849 74H38.4756C38.2959 73.9986 38.119 73.9548 37.9596 73.8721C37.8001 73.7893 37.6626 73.67 37.5584 73.524C37.4541 73.378 37.3861 73.2093 37.3598 73.032C37.3336 72.8546 37.3499 72.6736 37.4074 72.5037L49.9531 36.6612L37.4529 2.51894C37.3908 2.3478 37.371 2.16428 37.3951 1.98389C37.4192 1.8035 37.4865 1.63155 37.5913 1.48257C37.696 1.33359 37.8352 1.21196 37.9971 1.12796C38.1589 1.04397 38.3386 1.00008 38.5211 1V1Z" fill="#010101"/>
<path d="M2.17999 1H16.112C17.0369 1.00161 17.9393 1.28462 18.6987 1.81123C19.4581 2.33783 20.0384 3.08299 20.3621 3.9472L32.5668 36.6612C32.657 36.9102 32.657 37.1829 32.5668 37.432L32.4986 37.636L20.3393 71.0074C20.0217 71.8837 19.4411 72.6412 18.6766 73.1766C17.9121 73.7121 17.0007 73.9996 16.0665 74H2.15726C1.97753 73.9986 1.80068 73.9548 1.64123 73.8721C1.48178 73.7893 1.34428 73.67 1.24002 73.524C1.13576 73.378 1.06772 73.2093 1.04147 73.032C1.01523 72.8546 1.03154 72.6736 1.08906 72.5037L13.6347 36.6612L1.13452 2.51894C1.07361 2.35136 1.05319 2.1718 1.07491 1.99487C1.09663 1.81793 1.15987 1.64859 1.25951 1.50061C1.35915 1.35263 1.49237 1.23018 1.64836 1.1432C1.80434 1.05621 1.9787 1.00715 2.15726 1H2.17999Z" fill="#010101"/>
<path d="M49.9548 36.6612L37.4546 72.4811C37.3926 72.6522 37.3727 72.8357 37.3968 73.0161C37.4209 73.1965 37.4882 73.3685 37.593 73.5174C37.6977 73.6664 37.8369 73.788 37.9988 73.872C38.1606 73.956 38.3403 73.9999 38.5228 74H52.3866M49.9548 36.6612L37.4546 2.54164C37.3879 2.36928 37.3645 2.18328 37.3863 1.99982C37.4082 1.81636 37.4746 1.64101 37.5799 1.48903C37.6852 1.33705 37.8262 1.21305 37.9905 1.12782C38.1549 1.0426 38.3376 0.998724 38.5228 1.00003H52.4321M49.9548 36.6612L37.4091 72.4811C37.3471 72.6522 37.3273 72.8357 37.3514 73.0161C37.3755 73.1965 37.4427 73.3685 37.5475 73.5174C37.6523 73.6664 37.7915 73.788 37.9533 73.872C38.1151 73.956 38.2949 73.9999 38.4773 74H52.4093M49.9548 36.6612L37.4546 2.51897C37.3926 2.34783 37.3727 2.16431 37.3968 1.98392C37.4209 1.80353 37.4882 1.63158 37.593 1.4826C37.6977 1.33362 37.8369 1.21199 37.9988 1.12799C38.1606 1.044 38.3403 1.00011 38.5228 1.00003H52.4321M52.4321 1.00003C53.3531 1.00624 54.2504 1.29138 55.0053 1.81768C55.7602 2.34398 56.3371 3.08662 56.6594 3.94723L68.9323 36.6612M68.9323 36.6612C69.0226 36.9102 69.0226 37.183 68.9323 37.432M68.9323 36.6612V37.228C68.9349 37.367 68.9118 37.5053 68.8641 37.636M68.9323 37.432L56.6594 71.0075M68.8868 37.4547L68.8187 37.636M56.6594 71.0075C56.3418 71.8838 55.7612 72.6412 54.9967 73.1767C54.2321 73.7121 53.3208 73.9996 52.3866 74M56.6594 71.0075L68.8187 37.636M49.9548 36.6612L37.4546 2.51897C37.3926 2.34783 37.3727 2.16431 37.3968 1.98392C37.4209 1.80353 37.4882 1.63158 37.593 1.4826C37.6977 1.33362 37.8369 1.21199 37.9988 1.12799C38.1606 1.044 38.3403 1.00011 38.5228 1.00003H52.4321C53.3531 1.00624 54.2504 1.29138 55.0053 1.81768C55.7602 2.34398 56.3371 3.08662 56.6594 3.94723L68.9323 36.6612C69.0226 36.9102 69.0226 37.183 68.9323 37.432L56.6594 71.0075C56.3418 71.8838 55.7612 72.6412 54.9967 73.1767C54.2321 73.7121 53.3208 73.9996 52.3866 74H38.4773C38.2976 73.9987 38.1207 73.9548 37.9613 73.8721C37.8018 73.7894 37.6643 73.6701 37.5601 73.524C37.4558 73.378 37.3878 73.2094 37.3615 73.032C37.3353 72.8546 37.3516 72.6736 37.4091 72.5037L43.4092 55.3193L49.9548 36.6612V36.6612ZM13.5906 36.6612L1.0677 72.4811C1.00567 72.6522 0.985861 72.8357 1.00995 73.0161C1.03403 73.1965 1.1013 73.3685 1.20607 73.5174C1.31085 73.6664 1.45004 73.788 1.61188 73.872C1.77372 73.956 1.95346 73.9999 2.1359 74H16.0452C16.9794 73.9996 17.8907 73.7121 18.6552 73.1767C19.4198 72.6412 20.0004 71.8838 20.318 71.0075L32.4772 37.636L32.5681 37.432C32.6584 37.183 32.6584 36.9102 32.5681 36.6612L20.3407 3.94723C20.0184 3.08662 19.4415 2.34398 18.6866 1.81768C17.9317 1.29138 17.0344 1.00624 16.1134 1.00003H2.18135C1.99891 1.00011 1.81918 1.044 1.65733 1.12799C1.49549 1.21199 1.3563 1.33362 1.25153 1.4826C1.14676 1.63158 1.07949 1.80353 1.0554 1.98392C1.03132 2.16431 1.05113 2.34783 1.11315 2.51897L13.6133 36.6612H13.5906Z" stroke="#010101" stroke-width="0.226809"/>
<path d="M47.2265 28.9985H29.8398V44.8681H47.2265L50.0674 36.7066L47.2265 28.9985Z" fill="#010101" stroke="#010101" stroke-width="0.226809"/>
</svg>
