<svg fill="none" height="61" viewBox="0 0 415 61" width="415" xmlns="http://www.w3.org/2000/svg" xmlns:xlink="http://www.w3.org/1999/xlink"><linearGradient id="a"><stop offset="0" stop-color="#fad961"/><stop offset="1" stop-color="#f76b1c"/></linearGradient><linearGradient id="b" gradientUnits="userSpaceOnUse" x1="0" x2="0" xlink:href="#a" y1="2.01013" y2="59.8275"/><radialGradient id="c" cx="0" cy="0" gradientTransform="matrix(0 49.4512 -49.4512 0 38.5967 6.44054)" gradientUnits="userSpaceOnUse" r="1" xlink:href="#a"/><radialGradient id="d" cx="0" cy="0" gradientTransform="matrix(0 13.8241 -13.8241 0 246.402 .694735)" gradientUnits="userSpaceOnUse" r="1" xlink:href="#a"/><g clip-rule="evenodd" fill-rule="evenodd"><path d="m380.071 47.4138c2.052 0 3.919-.3626 5.599-1.0879 1.681-.7253 3.123-1.7425 4.325-3.0515 1.203-1.3091 2.132-2.8658 2.787-4.6702.654-1.8043.981-3.7679.981-5.8907 0-2.0874-.292-3.9802-.875-5.6784-.584-1.6983-1.38-3.14-2.388-4.3252-1.009-1.1852-2.185-2.0963-3.53-2.7331-1.344-.6368-2.777-.9552-4.298-.9552-.814 0-1.751.1238-2.813.3714-1.061.2477-2.07.5838-3.025 1.0084.566.9198 1.168 1.654 1.805 2.2024.636.5483 1.415.7872 2.335.7164 2.158-.1415 3.838.6457 5.041 2.3616s1.805 4.0598 1.805 7.0317c0 1.5567-.177 2.9719-.531 4.2456-.354 1.2736-.867 2.3616-1.539 3.2638-.672.9021-1.486 1.6097-2.441 2.1227-.956.5131-2.035.7696-3.238.7696-.778 0-1.609-.0531-2.494-.1593-.884-.1061-1.751-.3007-2.6-.5837v-35.76893h-5.626v38.05093c1.699.9552 3.423 1.654 5.175 2.0962 1.751.4423 3.6.6634 5.545.6634zm-273.115.053c2.017 0 3.821-.2742 5.413-.8225 1.592-.5484 2.937-1.2826 4.034-2.2024 1.096-.9199 1.937-2.0078 2.52-3.2638.584-1.256.876-2.6093.876-4.0598 0-2.0167-.442-3.7237-1.327-5.1212-.884-1.3975-1.999-2.6181-3.343-3.6619-1.345-1.0437-2.795-1.9635-4.352-2.7596-1.557-.796-3.007-1.6009-4.352-2.4146-1.344-.8138-2.458-1.6894-3.343-2.627-.884-.9375-1.327-2.0785-1.327-3.423 0-1.4505.513-2.6888 1.539-3.7148 1.026-1.0261 2.477-1.5391 4.352-1.5391 1.026 0 2.185.0796 3.476.2389 1.291.1592 2.716.4687 4.272.9287l1.592-3.82104c-1.946-.60146-3.679-1.02601-5.2-1.27367-1.522-.24766-3.061-.37149-4.618-.37149-1.592 0-3.06.23882-4.404.71644-1.345.47763-2.512 1.141-3.5029 1.99016-.9907.8491-1.7602 1.8751-2.3086 3.078-.5483 1.2029-.8225 2.5296-.8225 3.9802 0 1.9813.4422 3.6441 1.3267 4.9886.8845 1.3444 1.9901 2.5031 3.3173 3.476 1.326.973 2.759 1.8398 4.298 2.6004 1.539.7607 2.972 1.539 4.299 2.3351 1.327.796 2.432 1.6894 3.317 2.68.884.9906 1.326 2.2112 1.326 3.6618 0 .8491-.176 1.6452-.53 2.3881-.354.743-.849 1.3887-1.486 1.9371s-1.415.9818-2.335 1.3002-1.964.4776-3.131.4776c-1.274 0-2.725-.1592-4.352-.4776-1.628-.3184-3.2904-.8668-4.9886-1.6452l-1.5391 3.8741c1.9813.9553 3.9803 1.6186 5.9967 1.9901 2.017.3715 3.786.5572 5.307.5572zm27.297-.053c1.734 0 3.397-.3184 4.989-.9553 1.592-.6368 2.998-1.5655 4.219-2.7861s2.194-2.7154 2.919-4.4844 1.088-3.8033 1.088-6.103c0-2.0167-.301-3.9006-.902-5.6519-.602-1.7513-1.478-3.2638-2.627-4.5375-1.15-1.2737-2.539-2.2731-4.166-2.9984-1.628-.7253-3.468-1.0879-5.52-1.0879-1.556 0-3.122.283-4.696.8491-1.575.566-2.99 1.4417-4.246 2.6269s-2.282 2.6712-3.078 4.4579c-.796 1.7866-1.194 3.9006-1.194 6.3418 0 2.2997.354 4.3428 1.062 6.1295.707 1.7867 1.654 3.2903 2.839 4.5109s2.582 2.1405 4.192 2.7597c1.61.6191 3.317.9287 5.121.9287zm-3.053-5.0416c.903.4953 1.92.7429 3.052.7429 1.203 0 2.255-.2653 3.158-.796.902-.5307 1.654-1.256 2.255-2.1759.601-.9198 1.044-1.9812 1.327-3.1841.283-1.203.424-2.4943.424-3.8741 0-3.255-.681-5.7315-2.043-7.4298-1.362-1.6982-3.069-2.5473-5.121-2.5473-1.026 0-1.973.2123-2.839.6368-.867.4246-1.628 1.0614-2.282 1.9105-.655.8491-1.168 1.8928-1.539 3.1311-.372 1.2383-.558 2.6712-.558 4.2987 0 1.4859.16 2.8392.478 4.0598s.787 2.2731 1.406 3.1576c.62.8845 1.38 1.5744 2.282 2.0698zm32.154 4.4579 10.296-27.437h-5.838l-6.952 20.8033-.371 1.4329-7.377-22.2362h-6.05l10.295 27.437zm27.961.1061c-1.609.3184-3.104.4776-4.484.4776-2.087 0-3.945-.3891-5.572-1.1675-1.628-.7784-3.008-1.8309-4.14-3.1576-1.132-1.3268-1.99-2.8746-2.574-4.6436-.583-1.769-.875-3.6441-.875-5.6254 0-2.1582.318-4.1041.955-5.8377s1.539-3.2018 2.707-4.4047c1.167-1.2029 2.565-2.1317 4.192-2.7862 1.628-.6545 3.432-.9818 5.413-.9818 1.84 0 3.494.4069 4.962 1.2206 1.468.8138 2.654 1.9017 3.556 3.2638s1.459 2.9454 1.672 4.7497c.212 1.8044 0 3.7149-.637 5.7315h-15.284c.389-1.0613.928-1.9547 1.618-2.68s1.619-1.0879 2.786-1.0879h6.157c.106-.9552.053-1.8574-.16-2.7065-.212-.8492-.566-1.5921-1.061-2.229-.495-.6368-1.088-1.141-1.778-1.5125-.69-.3714-1.459-.5572-2.308-.5572-2.017 0-3.715.8226-5.095 2.4678-1.38 1.6451-2.07 4.0775-2.07 7.297 0 1.5567.204 2.9719.61 4.2456.407 1.2737.973 2.3616 1.699 3.2638.725.9022 1.592 1.6009 2.6 2.0962s2.096.743 3.264.743c1.238 0 2.406-.1327 3.502-.398 1.097-.2654 2.424-.7695 3.981-1.5125l1.486 3.8741c-1.805.9198-3.512 1.539-5.122 1.8574zm15.011-.1062v-14.1165c0-1.5213.177-2.8392.53-3.9537.354-1.1145.841-2.0432 1.46-2.7862.619-.7429 1.318-1.3002 2.096-1.6717.778-.3714 1.592-.5572 2.441-.5572.673 0 1.575.1238 2.707.3715l.69-4.6701c-1.062-.3184-2.017-.4776-2.866-.4776-1.344 0-2.636.4245-3.874 1.2736s-2.211 1.9459-2.919 3.2903l-.478 1.0614v-1.0614c-.176-.8491-.389-1.6274-.636-2.335-.248-.7076-.619-1.3091-1.115-1.8044h-4.245c.318 1.3798.539 2.8658.663 4.4579.124 1.592.186 3.1488.186 4.6701v18.309zm28.174.1062c-1.61.3184-3.105.4776-4.485.4776-2.087 0-3.945-.3891-5.572-1.1675-1.628-.7784-3.007-1.8309-4.139-3.1576-1.133-1.3268-1.991-2.8746-2.574-4.6436-.584-1.769-.876-3.6441-.876-5.6254 0-2.1582.318-4.1041.955-5.8377s1.539-3.2018 2.707-4.4047c1.167-1.2029 2.565-2.1317 4.192-2.7862 1.628-.6545 3.432-.9818 5.413-.9818 1.84 0 3.494.4069 4.962 1.2206 1.469.8138 2.654 1.9017 3.556 3.2638s1.459 2.9454 1.672 4.7497c.212 1.8044 0 3.7149-.637 5.7315h-15.284c.389-1.0613.929-1.9547 1.618-2.68.69-.7253 1.619-1.0879 2.787-1.0879h6.156c.106-.9552.053-1.8574-.159-2.7065-.213-.8492-.567-1.5921-1.062-2.229-.495-.6368-1.088-1.141-1.778-1.5125-.69-.3714-1.459-.5572-2.308-.5572-2.017 0-3.715.8226-5.095 2.4678-1.38 1.6451-2.07 4.0775-2.07 7.297 0 1.5567.204 2.9719.611 4.2456s.973 2.3616 1.698 3.2638 1.592 1.6009 2.6 2.0962c1.009.4953 2.097.743 3.264.743 1.238 0 2.406-.1327 3.503-.398 1.096-.2654 2.423-.7695 3.98-1.5125l1.486 3.8741c-1.805.9198-3.512 1.539-5.121 1.8574zm15.221-.1061v-27.437h-5.784v27.437zm19.815 12.3917c-1.592.5838-3.361.8757-5.306.8757-1.38 0-2.902-.1416-4.564-.4246-1.663-.283-3.415-.8845-5.254-1.8044l1.486-3.9802c1.592.7076 3.025 1.2118 4.298 1.5125 1.274.3007 2.477.4511 3.609.4511 1.097 0 2.123-.1681 3.078-.5042s1.796-.8579 2.521-1.5655 1.3-1.5833 1.725-2.627c.424-1.0437.636-2.2908.636-3.7414v-23.7221c-.813-.2123-1.556-.3626-2.229-.4511-.672-.0884-1.344-.1326-2.016-.1326-2.583 0-4.635.911-6.156 2.733-1.522 1.8221-2.282 4.3783-2.282 7.6686 0 1.309.132 2.5473.398 3.7149.265 1.1675.663 2.1847 1.194 3.0515s1.203 1.5301 2.017 1.9901c.813.4599 1.786.6368 2.918.5307 1.628-.1062 3.061.7076 4.299 2.4412-.92.6014-1.866 1.0614-2.839 1.3798s-1.867.513-2.68.5838c-1.592.1061-3.078-.1769-4.458-.8492-1.38-.6722-2.574-1.6274-3.582-2.8657-1.009-1.2383-1.805-2.7154-2.388-4.4313-.584-1.7159-.876-3.5645-.876-5.5458 0-2.1582.345-4.1306 1.035-5.9173.69-1.7866 1.663-3.3345 2.919-4.6436 1.256-1.309 2.759-2.3262 4.511-3.0515 1.751-.7252 3.706-1.0879 5.864-1.0879 1.486 0 2.98.1239 4.484.3715 1.504.2477 3.299.6899 5.387 1.3267v26.3226c0 2.1228-.319 4.0067-.956 5.6519-.636 1.6451-1.53 3.0338-2.68 4.1659-1.149 1.1322-2.52 1.9902-4.113 2.5739zm35.257-12.3917v-19.4766c0-1.5921-.212-2.9365-.637-4.0333-.424-1.0967-.999-1.9724-1.725-2.6269-.725-.6545-1.556-1.1322-2.494-1.4329-.937-.3007-1.901-.4511-2.892-.4511-1.026 0-2.185.1858-3.476.5573-1.292.3714-2.857 1.0879-4.697 2.1493.389.5307.814.9906 1.274 1.3798s.973.6191 1.539.6899c.354.0707.716.0884 1.088.0531.371-.0354.734-.0885 1.088-.1593l1.061-.2122c.354-.0708.708-.1062 1.062-.1062 1.026 0 1.786.3627 2.282 1.088.495.7252.742 1.654.742 2.7861v19.795zm-17.354-21.5993v21.5993h-5.731v-20.7502c0-2.0521-.283-4.281-.849-6.6868h4.511c.849.9553 1.406 1.9017 1.671 2.8392.266.9376.398 1.9371.398 2.9985zm54.383 21.5993c0-.7076.009-1.4329.026-2.1759.018-.743.027-1.4682.027-2.1758h-15.496v-34.22993h-5.838v38.58163zm13.26-.0532c-1.15.4246-2.397.6369-3.741.6369-1.345 0-2.556-.2035-3.635-.6103-1.079-.4069-1.99-.9553-2.733-1.6452s-1.318-1.5036-1.725-2.4412-.61-1.937-.61-2.9984c0-1.2737.247-2.4147.742-3.423.496-1.0083 1.318-1.884 2.468-2.627 1.15-.7429 2.663-1.3621 4.538-1.8574s4.174-.8845 6.899-1.1675c-.071.3892-.177.8137-.319 1.2736-.141.46-.353.8934-.637 1.3003-.283.4068-.654.7695-1.114 1.0879s-1.008.5307-1.645.6368c-2.052.3538-3.423.9287-4.113 1.7248-.69.796-1.035 1.6717-1.035 2.6269 0 1.026.372 1.9194 1.115 2.68.743.7607 1.733 1.141 2.971 1.141 1.133 0 2.282-.3095 3.45-.9287 1.168-.6191 2.247-1.5832 3.237-2.8923v-9.3402c0-2.0167-.504-3.653-1.512-4.909-1.009-1.2559-2.645-1.8839-4.909-1.8839-.92 0-1.866.0884-2.839.2653s-2.079.4953-3.317.9553l-1.38-3.6618c1.698-.743 3.255-1.2383 4.67-1.486 1.415-.2476 2.707-.3715 3.874-.3715 3.538 0 6.262.9818 8.173 2.9454 1.91 1.9636 2.866 4.7674 2.866 8.4115v7.5359c0 1.9459.062 3.653.185 5.1212.124 1.4683.345 2.7862.664 3.9537h-4.14c-.601-.3538-1.079-.8756-1.433-1.5655-.353-.69-.548-1.3887-.583-2.0963l-.584.9022c-1.415 1.3798-2.698 2.282-3.848 2.7065zm53.242-.0265c-1.097.4069-2.229.6103-3.397.6103-.672 0-1.379-.0177-2.122-.0531s-1.522-.1327-2.335-.2919c-.814-.1592-1.69-.3891-2.627-.6899-.938-.3007-1.937-.6987-2.999-1.194l1.433-3.9272c1.451.6722 2.839 1.1499 4.166 1.4329s2.556.4246 3.688.4246c1.522 0 2.645-.345 3.37-1.0349.726-.6899 1.088-1.5479 1.088-2.5739 0-.9199-.318-1.6805-.955-2.282-.637-.6014-1.433-1.1498-2.388-1.6451s-1.981-.9818-3.078-1.4594c-1.097-.4777-2.123-1.0526-3.078-1.7248-.956-.6722-1.752-1.4948-2.388-2.4677-.637-.973-.956-2.1847-.956-3.6353 0-.8491.177-1.7071.531-2.5739s.893-1.654 1.619-2.3616c.725-.7076 1.645-1.2825 2.759-1.7247 1.115-.4423 2.433-.6634 3.954-.6634 1.061 0 2.202.0973 3.423.2919s2.609.5572 4.166 1.0879l-1.38 3.821c-1.203-.3892-2.255-.6545-3.158-.796-.902-.1416-1.76-.2123-2.573-.2123-1.133 0-2.07.2565-2.813.7695s-1.115 1.2825-1.115 2.3085c0 .8845.319 1.6275.956 2.2289.637.6015 1.433 1.1499 2.388 1.6452s1.981.9906 3.078 1.486c1.097.4953 2.123 1.0879 3.078 1.7778s1.751 1.5302 2.388 2.5208.955 2.2289.955 3.7149c0 1.0967-.247 2.1139-.743 3.0515-.495.9375-1.167 1.7601-2.016 2.4677s-1.822 1.2648-2.919 1.6717z" fill="#332f27"/><path d="m62.1806 59.8274c7.3581-7.6234 11.9962-18.7569 11.9962-31.1574 0-10.1436-3.1035-19.43956-8.2607-26.65991 6.9678 6.98225 11.276 16.61951 11.276 27.26301 0 12.4345-5.8801 23.4956-15.0115 30.5543zm-47.1691 0c-9.13134-7.0587-15.0115-18.1198-15.0115-30.5543 0-10.6435 4.30825-20.28077 11.276-27.26302-5.15715 7.22035-8.26068 16.51632-8.26068 26.65992 0 12.4005 4.63811 23.534 11.99618 31.1574z" fill="url(#b)"/><path d="m38.5967 41.6358-14.5333 7.6407 2.7756-16.1831-11.7577-11.461 16.2487-2.3611 7.2667-14.72388 7.2667 14.72388 16.2488 2.3611-11.7578 11.461 2.7757 16.1831z" fill="url(#c)"/><path d="m247.214 10.3681-4.062 2.1359.776-4.52396-3.287-3.20392 4.542-.66004 2.031-4.11608 2.032 4.11608 4.542.66004-3.287 3.20392.776 4.52396z" fill="url(#d)"/></g></svg>