<svg width="280" height="48" viewBox="0 0 280 48" fill="none" xmlns="http://www.w3.org/2000/svg">
<g clip-path="url(#clip0_341_5354)">
<path fill-rule="evenodd" clip-rule="evenodd" d="M22.6327 17.6651C22.4979 17.8019 22.3211 17.8907 22.1304 17.9158C21.8971 17.9065 21.6767 17.8068 21.5164 17.6367C19.1723 14.5391 17.47 1.72973 22.5769 0.418323C28.1873 -0.938324 30.5036 7.00044 31.6249 10.8442C31.7028 11.1113 31.7751 11.3582 31.842 11.5811C29.3296 10.1035 26.4356 9.40415 23.5258 9.57204C23.1909 12.5857 22.9677 15.4881 22.856 17.1903C22.8276 17.3664 22.7502 17.531 22.6327 17.6651ZM28.2979 18.9765C28.2158 18.8909 28.158 18.7846 28.1304 18.6696C28.1019 18.5502 28.1019 18.4259 28.1304 18.3066C29.0234 14.5391 37.1444 4.54879 42.1397 8.31623C46.8247 11.8498 42.0342 18.7214 39.7634 21.9786C39.6133 22.1945 39.4738 22.3945 39.349 22.5766C38.8651 19.7041 37.6004 17.0202 35.6932 14.8182C33.6211 16.1187 31.7056 17.4372 30.3044 18.4014C29.9318 18.6576 29.5955 18.8887 29.3025 19.0882L29.2676 19.1106C29.2431 19.1253 29.2179 19.1389 29.1923 19.1509C29.1725 19.1602 29.1524 19.1689 29.132 19.1759L29.1108 19.1841C29.0031 19.2212 28.8878 19.2364 28.7723 19.2277C28.7441 19.2223 28.7165 19.2157 28.6891 19.2081L28.6542 19.1978C28.6188 19.1858 28.5845 19.1722 28.551 19.1563C28.4572 19.1117 28.3715 19.0511 28.2979 18.9765ZM95.4979 24.6418C95.4979 15.9067 99.349 10.4648 106.912 10.4648C114.475 10.4648 118.242 15.9067 118.242 24.6418C118.242 33.3763 114.419 38.7626 106.912 38.7626C99.4048 38.7626 95.4979 33.3763 95.4979 24.6418ZM100.186 24.6418C100.186 28.0463 100.968 34.3809 106.912 34.3809C112.856 34.3809 113.582 28.0739 113.582 24.6418C113.582 21.209 112.8 14.8182 106.912 14.8182C101.023 14.8182 100.186 21.2368 100.186 24.6418ZM78.3909 11.023L83.7769 30.53L88.7165 11.023H93.349L86.4002 38.2045H81.8792L75.9909 19.479L70.0467 38.2045H65.4979L58.549 11.023H63.2095L68.149 30.53L73.5351 11.023H78.3909ZM142.493 18.9209C142.493 13.0882 138.865 11.023 132.307 11.023H122.735V38.2045H127.423V27.0973H132.084L137.358 38.2045H142.549L137.079 26.5391C140.596 25.5902 142.493 23.2465 142.493 18.9209ZM132.084 22.7439H127.423V15.4325H132.084C135.935 15.4325 137.916 16.4648 137.916 19.0882C137.916 21.7116 136.047 22.7439 132.084 22.7439ZM147.489 11.023H152.149V33.7114H165.544V38.2045H147.489V11.023ZM177.684 11.023H169.954V38.2045H177.684C185.833 38.2045 191.023 33.0417 191.023 24.6974C191.023 16.3531 185.833 11.023 177.684 11.023ZM178.047 33.7114H174.67V15.4881H178.047C183.014 15.4881 186.391 19.3673 186.391 24.6974C186.391 30.0274 183.182 33.7114 178.047 33.7114ZM213.572 20.0927C212.651 17.5255 211.368 15.0417 206.958 15.0417C202.521 15.0417 199.675 19.0321 199.675 24.5301C199.675 30.0274 202.382 34.1579 206.958 34.1579C211.535 34.1579 213.014 31.4228 213.628 28.9952L217.926 30.4184C216.698 35.6088 212.484 38.651 206.958 38.651C199.675 38.651 194.958 32.93 194.958 24.5301C194.958 16.1302 199.675 10.5766 206.958 10.5766C212.149 10.5766 216.53 13.4229 217.926 18.6974L213.572 20.0927ZM232.186 10.4648C224.623 10.4648 220.744 15.9067 220.744 24.6418C220.744 33.3763 224.679 38.7626 232.186 38.7626C239.693 38.7626 243.516 33.3763 243.516 24.6418C243.516 15.9067 239.749 10.4648 232.186 10.4648ZM232.186 34.3809C226.242 34.3809 225.461 28.0463 225.461 24.6418C225.461 21.2368 226.298 14.8182 232.186 14.8182C238.075 14.8182 238.856 21.209 238.856 24.6418C238.856 28.0739 238.13 34.3809 232.186 34.3809ZM248.428 11.023H253.144V38.2017H248.428V11.023ZM274.354 11.023V29.3577L263.833 11.023H259.172V38.2045H263.833V20.4836L274.354 38.2045H279.07V11.023H274.354ZM31.7862 23.9719L31.4793 24.1948L31.3118 24.5301C31.3093 24.5557 31.3082 24.5813 31.3079 24.6069L31.3087 24.6527C31.3149 24.7944 31.3539 24.9345 31.4234 25.0604C31.5379 25.2179 31.707 25.3275 31.8979 25.3673L32.7139 25.6191L32.7599 25.6338C34.4112 26.1413 36.7668 26.8667 39.1816 27.7116C38.6904 30.5621 37.3816 33.2091 35.4141 35.3298C35.6134 35.3172 35.8316 35.3046 36.0658 35.2918C39.9979 35.0694 48.4651 34.5891 48.3072 28.7161C48.1397 23.4694 35.2467 22.3253 31.7862 23.9719ZM29.4348 30.3029C29.4588 30.3093 29.4822 30.3174 29.5054 30.3269C29.5313 30.3372 29.557 30.3492 29.5816 30.3626C33.0699 32.037 41.0234 42.3065 36.1955 46.2696C31.65 50.0007 26.0412 43.7127 23.4207 40.7755C23.2577 40.593 23.1064 40.4233 22.9677 40.2696C25.8435 40.4669 28.7167 39.8479 31.256 38.4835C30.3027 35.7032 29.2992 33.1486 28.6743 31.5598L28.6696 31.5467L28.5769 31.3112C28.5147 31.1755 28.4946 31.0254 28.5175 30.88C28.5242 30.837 28.5348 30.7943 28.549 30.753L28.5649 30.7137L28.5792 30.6844L28.5981 30.6489C28.6132 30.6227 28.6299 30.597 28.6484 30.573C28.717 30.4832 28.8072 30.4106 28.9118 30.3626C29.0153 30.3093 29.13 30.2806 29.2467 30.2789C29.3106 30.2778 29.3737 30.2859 29.4348 30.3029ZM23.2467 32.5952C23.2302 32.5259 23.2028 32.4606 23.1659 32.4001C23.1412 32.3599 23.1122 32.3222 23.0792 32.2879C23.0381 32.2296 22.9853 32.181 22.9246 32.145C22.886 32.1221 22.8442 32.1048 22.8002 32.0928C22.6303 32.0231 22.4398 32.0231 22.27 32.0928C22.0928 32.1467 21.943 32.2667 21.8514 32.4274C21.0142 33.8789 19.563 36.3905 17.9444 38.9856C15.2774 37.8726 12.9968 35.9993 11.3863 33.5998L11.3129 34.0156L11.2847 34.175C10.5938 38.0513 9.09769 46.4451 14.9025 47.6649C20.0653 48.6696 24.0281 36.3344 23.2467 32.5952ZM17.7211 28.744C17.6822 28.8545 17.6257 28.958 17.5537 29.0507C15.0699 32.037 2.95835 36.5856 0.55833 31.9254C-2.09712 26.6411 5.43032 22.5188 8.85894 20.6411C9.03359 20.5457 9.19757 20.4558 9.34902 20.3718C8.51761 23.1429 8.47891 26.0917 9.23742 28.8835C12.2793 28.5486 15.1258 28.1019 16.8561 27.8228C17.0434 27.8086 17.2302 27.8576 17.3863 27.9623C17.5472 28.0544 17.667 28.2037 17.7211 28.3809C17.7496 28.5004 17.7496 28.6246 17.7211 28.744ZM16.7444 22.3809C16.8681 22.4065 16.9967 22.3863 17.1072 22.3253C17.218 22.261 17.3058 22.1634 17.3583 22.0462C17.414 21.9759 17.455 21.8953 17.479 21.8091C17.503 21.723 17.5094 21.6325 17.4979 21.5437C17.4852 21.4494 17.4573 21.3584 17.4156 21.2744C17.3942 21.2314 17.3693 21.1899 17.3412 21.1507C17.3129 21.112 17.2814 21.0755 17.2467 21.0417C16.0188 19.9254 13.8979 17.9719 11.7769 15.795C13.4505 13.4261 15.7919 11.6089 18.5025 10.5766L18.0103 10.3684C14.3989 8.83348 6.43991 5.45138 3.99091 10.8557C1.84208 15.6832 12.8932 22.3253 16.7444 22.3809Z" fill="black"/>
</g>
<defs>
<clipPath id="clip0_341_5354">
<rect width="279.07" height="48" fill="white"/>
</clipPath>
</defs>
</svg>
